solid cavitating_hydrofoil_10aoa
  facet normal 9.140537e-001 -0.000000e+000 4.055932e-001
    outer loop
      vertex  -1.146727e-002 -3.810000e-001 7.148474e-002
      vertex  -9.875147e-003 3.810000e-001 6.789670e-002
      vertex  -1.146727e-002 3.810000e-001 7.148474e-002
    endloop
  endfacet
  facet normal 9.140537e-001 0.000000e+000 4.055932e-001
    outer loop
      vertex  -1.146727e-002 -3.810000e-001 7.148474e-002
      vertex  -9.875147e-003 -3.810000e-001 6.789670e-002
      vertex  -9.875147e-003 3.810000e-001 6.789670e-002
    endloop
  endfacet
  facet normal 9.252223e-001 -0.000000e+000 3.794253e-001
    outer loop
      vertex  -9.875147e-003 -3.810000e-001 6.789670e-002
      vertex  -6.916022e-003 3.810000e-001 6.068093e-002
      vertex  -9.875147e-003 3.810000e-001 6.789670e-002
    endloop
  endfacet
  facet normal 9.252223e-001 0.000000e+000 3.794253e-001
    outer loop
      vertex  -9.875147e-003 -3.810000e-001 6.789670e-002
      vertex  -6.916022e-003 -3.810000e-001 6.068093e-002
      vertex  -6.916022e-003 3.810000e-001 6.068093e-002
    endloop
  endfacet
  facet normal 9.384692e-001 -0.000000e+000 3.453631e-001
    outer loop
      vertex  -6.916022e-003 -3.810000e-001 6.068093e-002
      vertex  -4.242060e-003 3.810000e-001 5.341486e-002
      vertex  -6.916022e-003 3.810000e-001 6.068093e-002
    endloop
  endfacet
  facet normal 9.384692e-001 0.000000e+000 3.453631e-001
    outer loop
      vertex  -6.916022e-003 -3.810000e-001 6.068093e-002
      vertex  -4.242060e-003 -3.810000e-001 5.341486e-002
      vertex  -4.242060e-003 3.810000e-001 5.341486e-002
    endloop
  endfacet
  facet normal 9.496969e-001 -0.000000e+000 3.131704e-001
    outer loop
      vertex  -4.242060e-003 -3.810000e-001 5.341486e-002
      vertex  -1.830748e-003 3.810000e-001 4.610249e-002
      vertex  -4.242060e-003 3.810000e-001 5.341486e-002
    endloop
  endfacet
  facet normal 9.496969e-001 0.000000e+000 3.131704e-001
    outer loop
      vertex  -4.242060e-003 -3.810000e-001 5.341486e-002
      vertex  -1.830748e-003 -3.810000e-001 4.610249e-002
      vertex  -1.830748e-003 3.810000e-001 4.610249e-002
    endloop
  endfacet
  facet normal 9.612901e-001 -0.000000e+000 2.755382e-001
    outer loop
      vertex  -1.830748e-003 -3.810000e-001 4.610249e-002
      vertex  2.803963e-004 3.810000e-001 3.873719e-002
      vertex  -1.830748e-003 3.810000e-001 4.610249e-002
    endloop
  endfacet
  facet normal 9.612901e-001 0.000000e+000 2.755382e-001
    outer loop
      vertex  -1.830748e-003 -3.810000e-001 4.610249e-002
      vertex  2.803963e-004 -3.810000e-001 3.873719e-002
      vertex  2.803963e-004 3.810000e-001 3.873719e-002
    endloop
  endfacet
  facet normal 9.724078e-001 -0.000000e+000 2.332879e-001
    outer loop
      vertex  2.803963e-004 -3.810000e-001 3.873719e-002
      vertex  2.061354e-003 3.810000e-001 3.131367e-002
      vertex  2.803963e-004 3.810000e-001 3.873719e-002
    endloop
  endfacet
  facet normal 9.724078e-001 0.000000e+000 2.332879e-001
    outer loop
      vertex  2.803963e-004 -3.810000e-001 3.873719e-002
      vertex  2.061354e-003 -3.810000e-001 3.131367e-002
      vertex  2.061354e-003 3.810000e-001 3.131367e-002
    endloop
  endfacet
  facet normal 9.854944e-001 -0.000000e+000 1.697076e-001
    outer loop
      vertex  2.061354e-003 -3.810000e-001 3.131367e-002
      vertex  3.354536e-003 3.810000e-001 2.380415e-002
      vertex  2.061354e-003 3.810000e-001 3.131367e-002
    endloop
  endfacet
  facet normal 9.854944e-001 0.000000e+000 1.697076e-001
    outer loop
      vertex  2.061354e-003 -3.810000e-001 3.131367e-002
      vertex  3.354536e-003 -3.810000e-001 2.380415e-002
      vertex  3.354536e-003 3.810000e-001 2.380415e-002
    endloop
  endfacet
  facet normal 9.945295e-001 -0.000000e+000 1.044559e-001
    outer loop
      vertex  3.354536e-003 -3.810000e-001 2.380415e-002
      vertex  3.753487e-003 -3.810000e-001 2.000572e-002
      vertex  3.354536e-003 3.810000e-001 2.380415e-002
    endloop
  endfacet
  facet normal 9.945295e-001 -0.000000e+000 1.044559e-001
    outer loop
      vertex  3.753487e-003 -3.810000e-001 2.000572e-002
      vertex  3.753487e-003 3.810000e-001 2.000572e-002
      vertex  3.354536e-003 3.810000e-001 2.380415e-002
    endloop
  endfacet
  facet normal 9.985887e-001 -0.000000e+000 5.310806e-002
    outer loop
      vertex  3.753487e-003 -3.810000e-001 2.000572e-002
      vertex  3.957329e-003 3.810000e-001 1.617289e-002
      vertex  3.753487e-003 3.810000e-001 2.000572e-002
    endloop
  endfacet
  facet normal 9.985887e-001 0.000000e+000 5.310806e-002
    outer loop
      vertex  3.753487e-003 -3.810000e-001 2.000572e-002
      vertex  3.957329e-003 -3.810000e-001 1.617289e-002
      vertex  3.957329e-003 3.810000e-001 1.617289e-002
    endloop
  endfacet
  facet normal 9.999849e-001 0.000000e+000 -5.496663e-003
    outer loop
      vertex  3.957329e-003 -3.810000e-001 1.617289e-002
      vertex  3.936043e-003 3.810000e-001 1.230036e-002
      vertex  3.957329e-003 3.810000e-001 1.617289e-002
    endloop
  endfacet
  facet normal 9.999849e-001 0.000000e+000 -5.496663e-003
    outer loop
      vertex  3.957329e-003 -3.810000e-001 1.617289e-002
      vertex  3.936043e-003 -3.810000e-001 1.230036e-002
      vertex  3.936043e-003 3.810000e-001 1.230036e-002
    endloop
  endfacet
  facet normal 9.968148e-001 0.000000e+000 -7.975041e-002
    outer loop
      vertex  3.936043e-003 -3.810000e-001 1.230036e-002
      vertex  3.622091e-003 3.810000e-001 8.376224e-003
      vertex  3.936043e-003 3.810000e-001 1.230036e-002
    endloop
  endfacet
  facet normal 9.968148e-001 0.000000e+000 -7.975041e-002
    outer loop
      vertex  3.936043e-003 -3.810000e-001 1.230036e-002
      vertex  3.622091e-003 -3.810000e-001 8.376224e-003
      vertex  3.622091e-003 3.810000e-001 8.376224e-003
    endloop
  endfacet
  facet normal 9.893585e-001 0.000000e+000 -1.454984e-001
    outer loop
      vertex  3.622091e-003 -3.810000e-001 8.376224e-003
      vertex  3.330040e-003 3.810000e-001 6.390339e-003
      vertex  3.622091e-003 3.810000e-001 8.376224e-003
    endloop
  endfacet
  facet normal 9.893585e-001 0.000000e+000 -1.454984e-001
    outer loop
      vertex  3.622091e-003 -3.810000e-001 8.376224e-003
      vertex  3.330040e-003 -3.810000e-001 6.390339e-003
      vertex  3.330040e-003 3.810000e-001 6.390339e-003
    endloop
  endfacet
  facet normal 9.767035e-001 0.000000e+000 -2.145933e-001
    outer loop
      vertex  3.330040e-003 -3.810000e-001 6.390339e-003
      vertex  2.887904e-003 3.810000e-001 4.377991e-003
      vertex  3.330040e-003 3.810000e-001 6.390339e-003
    endloop
  endfacet
  facet normal 9.767035e-001 0.000000e+000 -2.145933e-001
    outer loop
      vertex  3.330040e-003 -3.810000e-001 6.390339e-003
      vertex  2.887904e-003 -3.810000e-001 4.377991e-003
      vertex  2.887904e-003 3.810000e-001 4.377991e-003
    endloop
  endfacet
  facet normal 9.500194e-001 0.000000e+000 -3.121908e-001
    outer loop
      vertex  2.887904e-003 -3.810000e-001 4.377991e-003
      vertex  2.213136e-003 3.810000e-001 2.324624e-003
      vertex  2.887904e-003 3.810000e-001 4.377991e-003
    endloop
  endfacet
  facet normal 9.500194e-001 0.000000e+000 -3.121908e-001
    outer loop
      vertex  2.887904e-003 -3.810000e-001 4.377991e-003
      vertex  2.213136e-003 -3.810000e-001 2.324624e-003
      vertex  2.213136e-003 3.810000e-001 2.324624e-003
    endloop
  endfacet
  facet normal 8.891383e-001 0.000000e+000 -4.576384e-001
    outer loop
      vertex  2.213136e-003 -3.810000e-001 2.324624e-003
      vertex  1.665634e-003 -3.810000e-001 1.260890e-003
      vertex  2.213136e-003 3.810000e-001 2.324624e-003
    endloop
  endfacet
  facet normal 8.891383e-001 0.000000e+000 -4.576384e-001
    outer loop
      vertex  1.665634e-003 -3.810000e-001 1.260890e-003
      vertex  1.665634e-003 3.810000e-001 1.260890e-003
      vertex  2.213136e-003 3.810000e-001 2.324624e-003
    endloop
  endfacet
  facet normal 6.035675e-001 0.000000e+000 -7.973119e-001
    outer loop
      vertex  0.000000e+000 3.810000e-001 -4.665904e-017
      vertex  1.665634e-003 3.810000e-001 1.260890e-003
      vertex  1.665634e-003 -3.810000e-001 1.260890e-003
    endloop
  endfacet
  facet normal 6.035675e-001 -9.764254e-017 -7.973119e-001
    outer loop
      vertex  0.000000e+000 3.810000e-001 -4.665904e-017
      vertex  1.665634e-003 -3.810000e-001 1.260890e-003
      vertex  0.000000e+000 -3.810000e-001 4.665904e-017
    endloop
  endfacet
  facet normal -5.173932e-001 0.000000e+000 -8.557478e-001
    outer loop
      vertex  -1.238505e-003 3.810000e-001 7.488119e-004
      vertex  0.000000e+000 3.810000e-001 -4.665904e-017
      vertex  0.000000e+000 -3.810000e-001 4.665904e-017
    endloop
  endfacet
  facet normal -5.173932e-001 -0.000000e+000 -8.557478e-001
    outer loop
      vertex  -1.238505e-003 3.810000e-001 7.488119e-004
      vertex  0.000000e+000 -3.810000e-001 4.665904e-017
      vertex  -1.238505e-003 -3.810000e-001 7.488119e-004
    endloop
  endfacet
  facet normal -8.425714e-001 0.000000e+000 -5.385848e-001
    outer loop
      vertex  -1.238505e-003 -3.810000e-001 7.488119e-004
      vertex  -1.794126e-003 3.810000e-001 1.618035e-003
      vertex  -1.238505e-003 3.810000e-001 7.488119e-004
    endloop
  endfacet
  facet normal -8.425714e-001 0.000000e+000 -5.385848e-001
    outer loop
      vertex  -1.238505e-003 -3.810000e-001 7.488119e-004
      vertex  -1.794126e-003 -3.810000e-001 1.618035e-003
      vertex  -1.794126e-003 3.810000e-001 1.618035e-003
    endloop
  endfacet
  facet normal -9.259456e-001 0.000000e+000 -3.776569e-001
    outer loop
      vertex  -1.794126e-003 -3.810000e-001 1.618035e-003
      vertex  -2.530154e-003 3.810000e-001 3.422641e-003
      vertex  -1.794126e-003 3.810000e-001 1.618035e-003
    endloop
  endfacet
  facet normal -9.259456e-001 0.000000e+000 -3.776569e-001
    outer loop
      vertex  -1.794126e-003 -3.810000e-001 1.618035e-003
      vertex  -2.530154e-003 -3.810000e-001 3.422641e-003
      vertex  -2.530154e-003 3.810000e-001 3.422641e-003
    endloop
  endfacet
  facet normal -9.626418e-001 0.000000e+000 -2.707782e-001
    outer loop
      vertex  -2.530154e-003 -3.810000e-001 3.422641e-003
      vertex  -3.048559e-003 3.810000e-001 5.265620e-003
      vertex  -2.530154e-003 3.810000e-001 3.422641e-003
    endloop
  endfacet
  facet normal -9.626418e-001 0.000000e+000 -2.707782e-001
    outer loop
      vertex  -2.530154e-003 -3.810000e-001 3.422641e-003
      vertex  -3.048559e-003 -3.810000e-001 5.265620e-003
      vertex  -3.048559e-003 3.810000e-001 5.265620e-003
    endloop
  endfacet
  facet normal -9.753497e-001 0.000000e+000 -2.206652e-001
    outer loop
      vertex  -3.048559e-003 -3.810000e-001 5.265620e-003
      vertex  -3.469410e-003 3.810000e-001 7.125800e-003
      vertex  -3.048559e-003 3.810000e-001 5.265620e-003
    endloop
  endfacet
  facet normal -9.753497e-001 0.000000e+000 -2.206652e-001
    outer loop
      vertex  -3.048559e-003 -3.810000e-001 5.265620e-003
      vertex  -3.469410e-003 -3.810000e-001 7.125800e-003
      vertex  -3.469410e-003 3.810000e-001 7.125800e-003
    endloop
  endfacet
  facet normal -9.841052e-001 0.000000e+000 -1.775860e-001
    outer loop
      vertex  -3.469410e-003 -3.810000e-001 7.125800e-003
      vertex  -4.146019e-003 -3.810000e-001 1.087527e-002
      vertex  -3.469410e-003 3.810000e-001 7.125800e-003
    endloop
  endfacet
  facet normal -9.841052e-001 0.000000e+000 -1.775860e-001
    outer loop
      vertex  -4.146019e-003 -3.810000e-001 1.087527e-002
      vertex  -4.146019e-003 3.810000e-001 1.087527e-002
      vertex  -3.469410e-003 3.810000e-001 7.125800e-003
    endloop
  endfacet
  facet normal -9.892822e-001 0.000000e+000 -1.460163e-001
    outer loop
      vertex  -4.146019e-003 -3.810000e-001 1.087527e-002
      vertex  -4.702559e-003 3.810000e-001 1.464591e-002
      vertex  -4.146019e-003 3.810000e-001 1.087527e-002
    endloop
  endfacet
  facet normal -9.892822e-001 0.000000e+000 -1.460163e-001
    outer loop
      vertex  -4.146019e-003 -3.810000e-001 1.087527e-002
      vertex  -4.702559e-003 -3.810000e-001 1.464591e-002
      vertex  -4.702559e-003 3.810000e-001 1.464591e-002
    endloop
  endfacet
  facet normal -9.920007e-001 0.000000e+000 -1.262322e-001
    outer loop
      vertex  -4.702559e-003 -3.810000e-001 1.464591e-002
      vertex  -5.184057e-003 -3.810000e-001 1.842979e-002
      vertex  -4.702559e-003 3.810000e-001 1.464591e-002
    endloop
  endfacet
  facet normal -9.920007e-001 0.000000e+000 -1.262322e-001
    outer loop
      vertex  -5.184057e-003 -3.810000e-001 1.842979e-002
      vertex  -5.184057e-003 3.810000e-001 1.842979e-002
      vertex  -4.702559e-003 3.810000e-001 1.464591e-002
    endloop
  endfacet
  facet normal -9.920008e-001 0.000000e+000 -1.262318e-001
    outer loop
      vertex  -5.184057e-003 -3.810000e-001 1.842979e-002
      vertex  -5.665554e-003 -3.810000e-001 2.221366e-002
      vertex  -5.184057e-003 3.810000e-001 1.842979e-002
    endloop
  endfacet
  facet normal -9.920008e-001 0.000000e+000 -1.262318e-001
    outer loop
      vertex  -5.665554e-003 -3.810000e-001 2.221366e-002
      vertex  -5.665554e-003 3.810000e-001 2.221366e-002
      vertex  -5.184057e-003 3.810000e-001 1.842979e-002
    endloop
  endfacet
  facet normal -9.917468e-001 0.000000e+000 -1.282116e-001
    outer loop
      vertex  -5.665554e-003 -3.810000e-001 2.221366e-002
      vertex  -6.643559e-003 3.810000e-001 2.977876e-002
      vertex  -5.665554e-003 3.810000e-001 2.221366e-002
    endloop
  endfacet
  facet normal -9.917468e-001 0.000000e+000 -1.282116e-001
    outer loop
      vertex  -5.665554e-003 -3.810000e-001 2.221366e-002
      vertex  -6.643559e-003 -3.810000e-001 2.977876e-002
      vertex  -6.643559e-003 3.810000e-001 2.977876e-002
    endloop
  endfacet
  facet normal -9.909612e-001 0.000000e+000 -1.341485e-001
    outer loop
      vertex  -6.643559e-003 -3.810000e-001 2.977876e-002
      vertex  -7.666588e-003 -3.810000e-001 3.733593e-002
      vertex  -6.643559e-003 3.810000e-001 2.977876e-002
    endloop
  endfacet
  facet normal -9.909612e-001 0.000000e+000 -1.341485e-001
    outer loop
      vertex  -7.666588e-003 -3.810000e-001 3.733593e-002
      vertex  -7.666588e-003 3.810000e-001 3.733593e-002
      vertex  -6.643559e-003 3.810000e-001 2.977876e-002
    endloop
  endfacet
  facet normal -9.909612e-001 0.000000e+000 -1.341488e-001
    outer loop
      vertex  -7.666588e-003 -3.810000e-001 3.733593e-002
      vertex  -8.689620e-003 -3.810000e-001 4.489309e-002
      vertex  -7.666588e-003 3.810000e-001 3.733593e-002
    endloop
  endfacet
  facet normal -9.909612e-001 0.000000e+000 -1.341488e-001
    outer loop
      vertex  -8.689620e-003 -3.810000e-001 4.489309e-002
      vertex  -8.689620e-003 3.810000e-001 4.489309e-002
      vertex  -7.666588e-003 3.810000e-001 3.733593e-002
    endloop
  endfacet
  facet normal -9.902791e-001 0.000000e+000 -1.390949e-001
    outer loop
      vertex  -8.689620e-003 -3.810000e-001 4.489309e-002
      vertex  -9.750172e-003 3.810000e-001 5.244364e-002
      vertex  -8.689620e-003 3.810000e-001 4.489309e-002
    endloop
  endfacet
  facet normal -9.902791e-001 0.000000e+000 -1.390949e-001
    outer loop
      vertex  -8.689620e-003 -3.810000e-001 4.489309e-002
      vertex  -9.750172e-003 -3.810000e-001 5.244364e-002
      vertex  -9.750172e-003 3.810000e-001 5.244364e-002
    endloop
  endfacet
  facet normal -9.889885e-001 0.000000e+000 -1.479929e-001
    outer loop
      vertex  -9.750172e-003 -3.810000e-001 5.244364e-002
      vertex  -1.087826e-002 3.810000e-001 5.998227e-002
      vertex  -9.750172e-003 3.810000e-001 5.244364e-002
    endloop
  endfacet
  facet normal -9.889885e-001 0.000000e+000 -1.479929e-001
    outer loop
      vertex  -9.750172e-003 -3.810000e-001 5.244364e-002
      vertex  -1.087826e-002 -3.810000e-001 5.998227e-002
      vertex  -1.087826e-002 3.810000e-001 5.998227e-002
    endloop
  endfacet
  facet normal -9.876171e-001 0.000000e+000 -1.568834e-001
    outer loop
      vertex  -1.087826e-002 -3.810000e-001 5.998227e-002
      vertex  -1.207388e-002 3.810000e-001 6.750900e-002
      vertex  -1.087826e-002 3.810000e-001 5.998227e-002
    endloop
  endfacet
  facet normal -9.876171e-001 0.000000e+000 -1.568834e-001
    outer loop
      vertex  -1.087826e-002 -3.810000e-001 5.998227e-002
      vertex  -1.207388e-002 -3.810000e-001 6.750900e-002
      vertex  -1.207388e-002 3.810000e-001 6.750900e-002
    endloop
  endfacet
  facet normal -9.868202e-001 0.000000e+000 -1.618205e-001
    outer loop
      vertex  -1.207388e-002 -3.810000e-001 6.750900e-002
      vertex  -1.269046e-002 3.810000e-001 7.126905e-002
      vertex  -1.207388e-002 3.810000e-001 6.750900e-002
    endloop
  endfacet
  facet normal -9.868202e-001 0.000000e+000 -1.618205e-001
    outer loop
      vertex  -1.207388e-002 -3.810000e-001 6.750900e-002
      vertex  -1.269046e-002 -3.810000e-001 7.126905e-002
      vertex  -1.269046e-002 3.810000e-001 7.126905e-002
    endloop
  endfacet
  facet normal -9.858322e-001 0.000000e+000 -1.677346e-001
    outer loop
      vertex  -1.269046e-002 -3.810000e-001 7.126905e-002
      vertex  -1.332954e-002 3.810000e-001 7.502515e-002
      vertex  -1.269046e-002 3.810000e-001 7.126905e-002
    endloop
  endfacet
  facet normal -9.858322e-001 0.000000e+000 -1.677346e-001
    outer loop
      vertex  -1.269046e-002 -3.810000e-001 7.126905e-002
      vertex  -1.332954e-002 -3.810000e-001 7.502515e-002
      vertex  -1.332954e-002 3.810000e-001 7.502515e-002
    endloop
  endfacet
  facet normal 8.850312e-001 -0.000000e+000 4.655319e-001
    outer loop
      vertex  -1.332954e-002 -3.810000e-001 7.502515e-002
      vertex  -1.146727e-002 3.810000e-001 7.148474e-002
      vertex  -1.332954e-002 3.810000e-001 7.502515e-002
    endloop
  endfacet
  facet normal 8.850312e-001 0.000000e+000 4.655319e-001
    outer loop
      vertex  -1.332954e-002 -3.810000e-001 7.502515e-002
      vertex  -1.146727e-002 -3.810000e-001 7.148474e-002
      vertex  -1.146727e-002 3.810000e-001 7.148474e-002
    endloop
  endfacet
  facet normal 0.000000e+000 1.000000e+000 0.000000e+000
    outer loop
      vertex  -1.146727e-002 3.810000e-001 7.148474e-002
      vertex  -1.269046e-002 3.810000e-001 7.126905e-002
      vertex  -1.332954e-002 3.810000e-001 7.502515e-002
    endloop
  endfacet
  facet normal 0.000000e+000 1.000000e+000 0.000000e+000
    outer loop
      vertex  -1.146727e-002 3.810000e-001 7.148474e-002
      vertex  -1.207388e-002 3.810000e-001 6.750900e-002
      vertex  -1.269046e-002 3.810000e-001 7.126905e-002
    endloop
  endfacet
  facet normal 0.000000e+000 1.000000e+000 0.000000e+000
    outer loop
      vertex  -1.146727e-002 3.810000e-001 7.148474e-002
      vertex  -9.875147e-003 3.810000e-001 6.789670e-002
      vertex  -1.207388e-002 3.810000e-001 6.750900e-002
    endloop
  endfacet
  facet normal 0.000000e+000 1.000000e+000 0.000000e+000
    outer loop
      vertex  -9.875147e-003 3.810000e-001 6.789670e-002
      vertex  -1.087826e-002 3.810000e-001 5.998227e-002
      vertex  -1.207388e-002 3.810000e-001 6.750900e-002
    endloop
  endfacet
  facet normal 0.000000e+000 1.000000e+000 0.000000e+000
    outer loop
      vertex  -9.875147e-003 3.810000e-001 6.789670e-002
      vertex  -6.916022e-003 3.810000e-001 6.068093e-002
      vertex  -1.087826e-002 3.810000e-001 5.998227e-002
    endloop
  endfacet
  facet normal 0.000000e+000 1.000000e+000 0.000000e+000
    outer loop
      vertex  -6.916022e-003 3.810000e-001 6.068093e-002
      vertex  -9.750172e-003 3.810000e-001 5.244364e-002
      vertex  -1.087826e-002 3.810000e-001 5.998227e-002
    endloop
  endfacet
  facet normal 0.000000e+000 1.000000e+000 0.000000e+000
    outer loop
      vertex  -6.916022e-003 3.810000e-001 6.068093e-002
      vertex  -4.242060e-003 3.810000e-001 5.341486e-002
      vertex  -9.750172e-003 3.810000e-001 5.244364e-002
    endloop
  endfacet
  facet normal 0.000000e+000 1.000000e+000 0.000000e+000
    outer loop
      vertex  -4.242060e-003 3.810000e-001 5.341486e-002
      vertex  -8.689620e-003 3.810000e-001 4.489309e-002
      vertex  -9.750172e-003 3.810000e-001 5.244364e-002
    endloop
  endfacet
  facet normal 0.000000e+000 1.000000e+000 0.000000e+000
    outer loop
      vertex  -4.242060e-003 3.810000e-001 5.341486e-002
      vertex  -1.830748e-003 3.810000e-001 4.610249e-002
      vertex  -8.689620e-003 3.810000e-001 4.489309e-002
    endloop
  endfacet
  facet normal 0.000000e+000 1.000000e+000 0.000000e+000
    outer loop
      vertex  -1.830748e-003 3.810000e-001 4.610249e-002
      vertex  -7.666588e-003 3.810000e-001 3.733593e-002
      vertex  -8.689620e-003 3.810000e-001 4.489309e-002
    endloop
  endfacet
  facet normal 0.000000e+000 1.000000e+000 0.000000e+000
    outer loop
      vertex  2.803963e-004 3.810000e-001 3.873719e-002
      vertex  -6.643559e-003 3.810000e-001 2.977876e-002
      vertex  -7.666588e-003 3.810000e-001 3.733593e-002
    endloop
  endfacet
  facet normal 0.000000e+000 1.000000e+000 0.000000e+000
    outer loop
      vertex  -1.830748e-003 3.810000e-001 4.610249e-002
      vertex  2.803963e-004 3.810000e-001 3.873719e-002
      vertex  -7.666588e-003 3.810000e-001 3.733593e-002
    endloop
  endfacet
  facet normal 0.000000e+000 1.000000e+000 0.000000e+000
    outer loop
      vertex  2.803963e-004 3.810000e-001 3.873719e-002
      vertex  2.061354e-003 3.810000e-001 3.131367e-002
      vertex  -6.643559e-003 3.810000e-001 2.977876e-002
    endloop
  endfacet
  facet normal 0.000000e+000 1.000000e+000 0.000000e+000
    outer loop
      vertex  3.354536e-003 3.810000e-001 2.380415e-002
      vertex  -5.665554e-003 3.810000e-001 2.221366e-002
      vertex  -6.643559e-003 3.810000e-001 2.977876e-002
    endloop
  endfacet
  facet normal 0.000000e+000 1.000000e+000 0.000000e+000
    outer loop
      vertex  2.061354e-003 3.810000e-001 3.131367e-002
      vertex  3.354536e-003 3.810000e-001 2.380415e-002
      vertex  -6.643559e-003 3.810000e-001 2.977876e-002
    endloop
  endfacet
  facet normal 0.000000e+000 1.000000e+000 0.000000e+000
    outer loop
      vertex  3.753487e-003 3.810000e-001 2.000572e-002
      vertex  -5.184057e-003 3.810000e-001 1.842979e-002
      vertex  -5.665554e-003 3.810000e-001 2.221366e-002
    endloop
  endfacet
  facet normal 0.000000e+000 1.000000e+000 0.000000e+000
    outer loop
      vertex  3.354536e-003 3.810000e-001 2.380415e-002
      vertex  3.753487e-003 3.810000e-001 2.000572e-002
      vertex  -5.665554e-003 3.810000e-001 2.221366e-002
    endloop
  endfacet
  facet normal 0.000000e+000 1.000000e+000 0.000000e+000
    outer loop
      vertex  3.957329e-003 3.810000e-001 1.617289e-002
      vertex  -4.702559e-003 3.810000e-001 1.464591e-002
      vertex  -5.184057e-003 3.810000e-001 1.842979e-002
    endloop
  endfacet
  facet normal 0.000000e+000 1.000000e+000 0.000000e+000
    outer loop
      vertex  3.753487e-003 3.810000e-001 2.000572e-002
      vertex  3.957329e-003 3.810000e-001 1.617289e-002
      vertex  -5.184057e-003 3.810000e-001 1.842979e-002
    endloop
  endfacet
  facet normal 0.000000e+000 1.000000e+000 0.000000e+000
    outer loop
      vertex  3.936043e-003 3.810000e-001 1.230036e-002
      vertex  -4.146019e-003 3.810000e-001 1.087527e-002
      vertex  -4.702559e-003 3.810000e-001 1.464591e-002
    endloop
  endfacet
  facet normal 0.000000e+000 1.000000e+000 0.000000e+000
    outer loop
      vertex  3.957329e-003 3.810000e-001 1.617289e-002
      vertex  3.936043e-003 3.810000e-001 1.230036e-002
      vertex  -4.702559e-003 3.810000e-001 1.464591e-002
    endloop
  endfacet
  facet normal 0.000000e+000 1.000000e+000 0.000000e+000
    outer loop
      vertex  3.622091e-003 3.810000e-001 8.376224e-003
      vertex  -3.469410e-003 3.810000e-001 7.125800e-003
      vertex  -4.146019e-003 3.810000e-001 1.087527e-002
    endloop
  endfacet
  facet normal 0.000000e+000 1.000000e+000 0.000000e+000
    outer loop
      vertex  3.936043e-003 3.810000e-001 1.230036e-002
      vertex  3.622091e-003 3.810000e-001 8.376224e-003
      vertex  -4.146019e-003 3.810000e-001 1.087527e-002
    endloop
  endfacet
  facet normal 0.000000e+000 1.000000e+000 0.000000e+000
    outer loop
      vertex  3.330040e-003 3.810000e-001 6.390339e-003
      vertex  -3.048559e-003 3.810000e-001 5.265620e-003
      vertex  -3.469410e-003 3.810000e-001 7.125800e-003
    endloop
  endfacet
  facet normal 0.000000e+000 1.000000e+000 0.000000e+000
    outer loop
      vertex  3.622091e-003 3.810000e-001 8.376224e-003
      vertex  3.330040e-003 3.810000e-001 6.390339e-003
      vertex  -3.469410e-003 3.810000e-001 7.125800e-003
    endloop
  endfacet
  facet normal 0.000000e+000 1.000000e+000 0.000000e+000
    outer loop
      vertex  2.887904e-003 3.810000e-001 4.377991e-003
      vertex  -2.530154e-003 3.810000e-001 3.422641e-003
      vertex  -3.048559e-003 3.810000e-001 5.265620e-003
    endloop
  endfacet
  facet normal 0.000000e+000 1.000000e+000 0.000000e+000
    outer loop
      vertex  3.330040e-003 3.810000e-001 6.390339e-003
      vertex  2.887904e-003 3.810000e-001 4.377991e-003
      vertex  -3.048559e-003 3.810000e-001 5.265620e-003
    endloop
  endfacet
  facet normal 0.000000e+000 1.000000e+000 0.000000e+000
    outer loop
      vertex  2.213136e-003 3.810000e-001 2.324624e-003
      vertex  -1.794126e-003 3.810000e-001 1.618035e-003
      vertex  -2.530154e-003 3.810000e-001 3.422641e-003
    endloop
  endfacet
  facet normal 0.000000e+000 1.000000e+000 0.000000e+000
    outer loop
      vertex  2.887904e-003 3.810000e-001 4.377991e-003
      vertex  2.213136e-003 3.810000e-001 2.324624e-003
      vertex  -2.530154e-003 3.810000e-001 3.422641e-003
    endloop
  endfacet
  facet normal 0.000000e+000 1.000000e+000 0.000000e+000
    outer loop
      vertex  1.665634e-003 3.810000e-001 1.260890e-003
      vertex  -1.238505e-003 3.810000e-001 7.488119e-004
      vertex  -1.794126e-003 3.810000e-001 1.618035e-003
    endloop
  endfacet
  facet normal 0.000000e+000 1.000000e+000 0.000000e+000
    outer loop
      vertex  1.665634e-003 3.810000e-001 1.260890e-003
      vertex  0.000000e+000 3.810000e-001 -4.665904e-017
      vertex  -1.238505e-003 3.810000e-001 7.488119e-004
    endloop
  endfacet
  facet normal 0.000000e+000 1.000000e+000 0.000000e+000
    outer loop
      vertex  2.213136e-003 3.810000e-001 2.324624e-003
      vertex  1.665634e-003 3.810000e-001 1.260890e-003
      vertex  -1.794126e-003 3.810000e-001 1.618035e-003
    endloop
  endfacet
  facet normal 0.000000e+000 -1.000000e+000 0.000000e+000
    outer loop
      vertex  -1.269046e-002 -3.810000e-001 7.126905e-002
      vertex  -1.146727e-002 -3.810000e-001 7.148474e-002
      vertex  -1.332954e-002 -3.810000e-001 7.502515e-002
    endloop
  endfacet
  facet normal 0.000000e+000 -1.000000e+000 0.000000e+000
    outer loop
      vertex  -1.207388e-002 -3.810000e-001 6.750900e-002
      vertex  -1.146727e-002 -3.810000e-001 7.148474e-002
      vertex  -1.269046e-002 -3.810000e-001 7.126905e-002
    endloop
  endfacet
  facet normal -0.000000e+000 -1.000000e+000 0.000000e+000
    outer loop
      vertex  -9.875147e-003 -3.810000e-001 6.789670e-002
      vertex  -1.146727e-002 -3.810000e-001 7.148474e-002
      vertex  -1.207388e-002 -3.810000e-001 6.750900e-002
    endloop
  endfacet
  facet normal 0.000000e+000 -1.000000e+000 0.000000e+000
    outer loop
      vertex  -1.087826e-002 -3.810000e-001 5.998227e-002
      vertex  -9.875147e-003 -3.810000e-001 6.789670e-002
      vertex  -1.207388e-002 -3.810000e-001 6.750900e-002
    endloop
  endfacet
  facet normal 0.000000e+000 -1.000000e+000 0.000000e+000
    outer loop
      vertex  -1.087826e-002 -3.810000e-001 5.998227e-002
      vertex  -6.916022e-003 -3.810000e-001 6.068093e-002
      vertex  -9.875147e-003 -3.810000e-001 6.789670e-002
    endloop
  endfacet
  facet normal 0.000000e+000 -1.000000e+000 0.000000e+000
    outer loop
      vertex  -9.750172e-003 -3.810000e-001 5.244364e-002
      vertex  -6.916022e-003 -3.810000e-001 6.068093e-002
      vertex  -1.087826e-002 -3.810000e-001 5.998227e-002
    endloop
  endfacet
  facet normal -0.000000e+000 -1.000000e+000 0.000000e+000
    outer loop
      vertex  -4.242060e-003 -3.810000e-001 5.341486e-002
      vertex  -6.916022e-003 -3.810000e-001 6.068093e-002
      vertex  -9.750172e-003 -3.810000e-001 5.244364e-002
    endloop
  endfacet
  facet normal 0.000000e+000 -1.000000e+000 0.000000e+000
    outer loop
      vertex  -8.689620e-003 -3.810000e-001 4.489309e-002
      vertex  -4.242060e-003 -3.810000e-001 5.341486e-002
      vertex  -9.750172e-003 -3.810000e-001 5.244364e-002
    endloop
  endfacet
  facet normal -0.000000e+000 -1.000000e+000 0.000000e+000
    outer loop
      vertex  -1.830748e-003 -3.810000e-001 4.610249e-002
      vertex  -4.242060e-003 -3.810000e-001 5.341486e-002
      vertex  -8.689620e-003 -3.810000e-001 4.489309e-002
    endloop
  endfacet
  facet normal 0.000000e+000 -1.000000e+000 0.000000e+000
    outer loop
      vertex  -7.666588e-003 -3.810000e-001 3.733593e-002
      vertex  -1.830748e-003 -3.810000e-001 4.610249e-002
      vertex  -8.689620e-003 -3.810000e-001 4.489309e-002
    endloop
  endfacet
  facet normal 0.000000e+000 -1.000000e+000 0.000000e+000
    outer loop
      vertex  -6.643559e-003 -3.810000e-001 2.977876e-002
      vertex  2.803963e-004 -3.810000e-001 3.873719e-002
      vertex  -7.666588e-003 -3.810000e-001 3.733593e-002
    endloop
  endfacet
  facet normal -0.000000e+000 -1.000000e+000 0.000000e+000
    outer loop
      vertex  2.803963e-004 -3.810000e-001 3.873719e-002
      vertex  -1.830748e-003 -3.810000e-001 4.610249e-002
      vertex  -7.666588e-003 -3.810000e-001 3.733593e-002
    endloop
  endfacet
  facet normal -0.000000e+000 -1.000000e+000 0.000000e+000
    outer loop
      vertex  2.061354e-003 -3.810000e-001 3.131367e-002
      vertex  2.803963e-004 -3.810000e-001 3.873719e-002
      vertex  -6.643559e-003 -3.810000e-001 2.977876e-002
    endloop
  endfacet
  facet normal -0.000000e+000 -1.000000e+000 0.000000e+000
    outer loop
      vertex  3.354536e-003 -3.810000e-001 2.380415e-002
      vertex  -6.643559e-003 -3.810000e-001 2.977876e-002
      vertex  -5.665554e-003 -3.810000e-001 2.221366e-002
    endloop
  endfacet
  facet normal 0.000000e+000 -1.000000e+000 0.000000e+000
    outer loop
      vertex  3.354536e-003 -3.810000e-001 2.380415e-002
      vertex  2.061354e-003 -3.810000e-001 3.131367e-002
      vertex  -6.643559e-003 -3.810000e-001 2.977876e-002
    endloop
  endfacet
  facet normal -0.000000e+000 -1.000000e+000 0.000000e+000
    outer loop
      vertex  3.753487e-003 -3.810000e-001 2.000572e-002
      vertex  -5.665554e-003 -3.810000e-001 2.221366e-002
      vertex  -5.184057e-003 -3.810000e-001 1.842979e-002
    endloop
  endfacet
  facet normal 0.000000e+000 -1.000000e+000 0.000000e+000
    outer loop
      vertex  3.753487e-003 -3.810000e-001 2.000572e-002
      vertex  3.354536e-003 -3.810000e-001 2.380415e-002
      vertex  -5.665554e-003 -3.810000e-001 2.221366e-002
    endloop
  endfacet
  facet normal -0.000000e+000 -1.000000e+000 0.000000e+000
    outer loop
      vertex  3.957329e-003 -3.810000e-001 1.617289e-002
      vertex  -5.184057e-003 -3.810000e-001 1.842979e-002
      vertex  -4.702559e-003 -3.810000e-001 1.464591e-002
    endloop
  endfacet
  facet normal 0.000000e+000 -1.000000e+000 0.000000e+000
    outer loop
      vertex  3.957329e-003 -3.810000e-001 1.617289e-002
      vertex  3.753487e-003 -3.810000e-001 2.000572e-002
      vertex  -5.184057e-003 -3.810000e-001 1.842979e-002
    endloop
  endfacet
  facet normal -0.000000e+000 -1.000000e+000 0.000000e+000
    outer loop
      vertex  3.936043e-003 -3.810000e-001 1.230036e-002
      vertex  -4.702559e-003 -3.810000e-001 1.464591e-002
      vertex  -4.146019e-003 -3.810000e-001 1.087527e-002
    endloop
  endfacet
  facet normal 0.000000e+000 -1.000000e+000 0.000000e+000
    outer loop
      vertex  3.936043e-003 -3.810000e-001 1.230036e-002
      vertex  3.957329e-003 -3.810000e-001 1.617289e-002
      vertex  -4.702559e-003 -3.810000e-001 1.464591e-002
    endloop
  endfacet
  facet normal -0.000000e+000 -1.000000e+000 0.000000e+000
    outer loop
      vertex  3.622091e-003 -3.810000e-001 8.376224e-003
      vertex  -4.146019e-003 -3.810000e-001 1.087527e-002
      vertex  -3.469410e-003 -3.810000e-001 7.125800e-003
    endloop
  endfacet
  facet normal 0.000000e+000 -1.000000e+000 0.000000e+000
    outer loop
      vertex  3.622091e-003 -3.810000e-001 8.376224e-003
      vertex  3.936043e-003 -3.810000e-001 1.230036e-002
      vertex  -4.146019e-003 -3.810000e-001 1.087527e-002
    endloop
  endfacet
  facet normal -0.000000e+000 -1.000000e+000 0.000000e+000
    outer loop
      vertex  3.330040e-003 -3.810000e-001 6.390339e-003
      vertex  -3.469410e-003 -3.810000e-001 7.125800e-003
      vertex  -3.048559e-003 -3.810000e-001 5.265620e-003
    endloop
  endfacet
  facet normal 0.000000e+000 -1.000000e+000 0.000000e+000
    outer loop
      vertex  3.330040e-003 -3.810000e-001 6.390339e-003
      vertex  3.622091e-003 -3.810000e-001 8.376224e-003
      vertex  -3.469410e-003 -3.810000e-001 7.125800e-003
    endloop
  endfacet
  facet normal -0.000000e+000 -1.000000e+000 0.000000e+000
    outer loop
      vertex  2.887904e-003 -3.810000e-001 4.377991e-003
      vertex  -3.048559e-003 -3.810000e-001 5.265620e-003
      vertex  -2.530154e-003 -3.810000e-001 3.422641e-003
    endloop
  endfacet
  facet normal 0.000000e+000 -1.000000e+000 0.000000e+000
    outer loop
      vertex  2.887904e-003 -3.810000e-001 4.377991e-003
      vertex  3.330040e-003 -3.810000e-001 6.390339e-003
      vertex  -3.048559e-003 -3.810000e-001 5.265620e-003
    endloop
  endfacet
  facet normal -0.000000e+000 -1.000000e+000 0.000000e+000
    outer loop
      vertex  2.213136e-003 -3.810000e-001 2.324624e-003
      vertex  -2.530154e-003 -3.810000e-001 3.422641e-003
      vertex  -1.794126e-003 -3.810000e-001 1.618035e-003
    endloop
  endfacet
  facet normal 0.000000e+000 -1.000000e+000 0.000000e+000
    outer loop
      vertex  2.213136e-003 -3.810000e-001 2.324624e-003
      vertex  2.887904e-003 -3.810000e-001 4.377991e-003
      vertex  -2.530154e-003 -3.810000e-001 3.422641e-003
    endloop
  endfacet
  facet normal -0.000000e+000 -1.000000e+000 0.000000e+000
    outer loop
      vertex  1.665634e-003 -3.810000e-001 1.260890e-003
      vertex  -1.794126e-003 -3.810000e-001 1.618035e-003
      vertex  -1.238505e-003 -3.810000e-001 7.488119e-004
    endloop
  endfacet
  facet normal 0.000000e+000 -1.000000e+000 0.000000e+000
    outer loop
      vertex  1.665634e-003 -3.810000e-001 1.260890e-003
      vertex  -1.238505e-003 -3.810000e-001 7.488119e-004
      vertex  0.000000e+000 -3.810000e-001 4.665904e-017
    endloop
  endfacet
  facet normal 0.000000e+000 -1.000000e+000 0.000000e+000
    outer loop
      vertex  1.665634e-003 -3.810000e-001 1.260890e-003
      vertex  2.213136e-003 -3.810000e-001 2.324624e-003
      vertex  -1.794126e-003 -3.810000e-001 1.618035e-003
    endloop
  endfacet
endsolid cavitating_hydrofoil_10aoa
