solid cavitating_hydrofoil_10aoa
  facet normal  9.140537e-01 -0.000000e+00  4.055932e-01
    outer loop
      vertex  -1.504891e-03 -5.000000e-02  9.381200e-03
      vertex  -1.295951e-03  5.000000e-02  8.910328e-03
      vertex  -1.504891e-03  5.000000e-02  9.381200e-03
    endloop
  endfacet
  facet normal  9.140537e-01 -0.000000e+00  4.055932e-01
    outer loop
      vertex  -1.295951e-03 -5.000000e-02  8.910328e-03
      vertex  -1.295951e-03  5.000000e-02  8.910328e-03
      vertex  -1.504891e-03 -5.000000e-02  9.381200e-03
    endloop
  endfacet
  facet normal  9.252225e-01 -0.000000e+00  3.794252e-01
    outer loop
      vertex  -1.295951e-03 -5.000000e-02  8.910328e-03
      vertex  -9.076145e-04  5.000000e-02  7.963376e-03
      vertex  -1.295951e-03  5.000000e-02  8.910328e-03
    endloop
  endfacet
  facet normal  9.252225e-01 -0.000000e+00  3.794252e-01
    outer loop
      vertex  -9.076145e-04 -5.000000e-02  7.963376e-03
      vertex  -9.076145e-04  5.000000e-02  7.963376e-03
      vertex  -1.295951e-03 -5.000000e-02  8.910328e-03
    endloop
  endfacet
  facet normal  9.384692e-01 -0.000000e+00  3.453631e-01
    outer loop
      vertex  -9.076145e-04 -5.000000e-02  7.963376e-03
      vertex  -5.567008e-04  5.000000e-02  7.009824e-03
      vertex  -9.076145e-04  5.000000e-02  7.963376e-03
    endloop
  endfacet
  facet normal  9.384692e-01 -0.000000e+00  3.453631e-01
    outer loop
      vertex  -5.567008e-04 -5.000000e-02  7.009824e-03
      vertex  -5.567008e-04  5.000000e-02  7.009824e-03
      vertex  -9.076145e-04 -5.000000e-02  7.963376e-03
    endloop
  endfacet
  facet normal  9.496970e-01 -0.000000e+00  3.131705e-01
    outer loop
      vertex  -5.567008e-04 -5.000000e-02  7.009824e-03
      vertex  -2.402556e-04  5.000000e-02  6.050196e-03
      vertex  -5.567008e-04  5.000000e-02  7.009824e-03
    endloop
  endfacet
  facet normal  9.496970e-01 -0.000000e+00  3.131705e-01
    outer loop
      vertex  -2.402556e-04 -5.000000e-02  6.050196e-03
      vertex  -2.402556e-04  5.000000e-02  6.050196e-03
      vertex  -5.567008e-04 -5.000000e-02  7.009824e-03
    endloop
  endfacet
  facet normal  9.612902e-01 -0.000000e+00  2.755382e-01
    outer loop
      vertex  -2.402556e-04 -5.000000e-02  6.050196e-03
      vertex   3.679742e-05  5.000000e-02  5.083621e-03
      vertex  -2.402556e-04  5.000000e-02  6.050196e-03
    endloop
  endfacet
  facet normal  9.612902e-01 -0.000000e+00  2.755382e-01
    outer loop
      vertex   3.679742e-05 -5.000000e-02  5.083621e-03
      vertex   3.679742e-05  5.000000e-02  5.083621e-03
      vertex  -2.402556e-04 -5.000000e-02  6.050196e-03
    endloop
  endfacet
  facet normal  9.724078e-01 -0.000000e+00  2.332877e-01
    outer loop
      vertex   3.679742e-05 -5.000000e-02  5.083621e-03
      vertex   2.705189e-04  5.000000e-02  4.109406e-03
      vertex   3.679742e-05  5.000000e-02  5.083621e-03
    endloop
  endfacet
  facet normal  9.724078e-01 -0.000000e+00  2.332877e-01
    outer loop
      vertex   2.705189e-04 -5.000000e-02  4.109406e-03
      vertex   2.705189e-04  5.000000e-02  4.109406e-03
      vertex   3.679742e-05 -5.000000e-02  5.083621e-03
    endloop
  endfacet
  facet normal  9.854944e-01 -0.000000e+00  1.697076e-01
    outer loop
      vertex   2.705189e-04 -5.000000e-02  4.109406e-03
      vertex   4.402278e-04  5.000000e-02  3.123904e-03
      vertex   2.705189e-04  5.000000e-02  4.109406e-03
    endloop
  endfacet
  facet normal  9.854944e-01 -0.000000e+00  1.697076e-01
    outer loop
      vertex   4.402278e-04 -5.000000e-02  3.123904e-03
      vertex   4.402278e-04  5.000000e-02  3.123904e-03
      vertex   2.705189e-04 -5.000000e-02  4.109406e-03
    endloop
  endfacet
  facet normal  9.945295e-01  0.000000e+00  1.044560e-01
    outer loop
      vertex   4.925836e-04 -5.000000e-02  2.625422e-03
      vertex   4.402278e-04  5.000000e-02  3.123904e-03
      vertex   4.402278e-04 -5.000000e-02  3.123904e-03
    endloop
  endfacet
  facet normal  9.945295e-01 -0.000000e+00  1.044560e-01
    outer loop
      vertex   4.925836e-04 -5.000000e-02  2.625422e-03
      vertex   4.925836e-04  5.000000e-02  2.625422e-03
      vertex   4.402278e-04  5.000000e-02  3.123904e-03
    endloop
  endfacet
  facet normal  9.985888e-01 -0.000000e+00  5.310795e-02
    outer loop
      vertex   4.925836e-04 -5.000000e-02  2.625422e-03
      vertex   5.193345e-04  5.000000e-02  2.122426e-03
      vertex   4.925836e-04  5.000000e-02  2.625422e-03
    endloop
  endfacet
  facet normal  9.985888e-01 -0.000000e+00  5.310795e-02
    outer loop
      vertex   5.193345e-04 -5.000000e-02  2.122426e-03
      vertex   5.193345e-04  5.000000e-02  2.122426e-03
      vertex   4.925836e-04 -5.000000e-02  2.625422e-03
    endloop
  endfacet
  facet normal  9.999849e-01  0.000000e+00 -5.496595e-03
    outer loop
      vertex   5.193345e-04 -5.000000e-02  2.122426e-03
      vertex   5.165410e-04  5.000000e-02  1.614220e-03
      vertex   5.193345e-04  5.000000e-02  2.122426e-03
    endloop
  endfacet
  facet normal  9.999849e-01  0.000000e+00 -5.496595e-03
    outer loop
      vertex   5.165410e-04 -5.000000e-02  1.614220e-03
      vertex   5.165410e-04  5.000000e-02  1.614220e-03
      vertex   5.193345e-04 -5.000000e-02  2.122426e-03
    endloop
  endfacet
  facet normal  9.968149e-01  0.000000e+00 -7.975031e-02
    outer loop
      vertex   5.165410e-04 -5.000000e-02  1.614220e-03
      vertex   4.753401e-04  5.000000e-02  1.099242e-03
      vertex   5.165410e-04  5.000000e-02  1.614220e-03
    endloop
  endfacet
  facet normal  9.968149e-01  0.000000e+00 -7.975031e-02
    outer loop
      vertex   4.753401e-04 -5.000000e-02  1.099242e-03
      vertex   4.753401e-04  5.000000e-02  1.099242e-03
      vertex   5.165410e-04 -5.000000e-02  1.614220e-03
    endloop
  endfacet
  facet normal  9.893585e-01  0.000000e+00 -1.454987e-01
    outer loop
      vertex   4.753401e-04 -5.000000e-02  1.099242e-03
      vertex   4.370132e-04  5.000000e-02  8.386272e-04
      vertex   4.753401e-04  5.000000e-02  1.099242e-03
    endloop
  endfacet
  facet normal  9.893585e-01  0.000000e+00 -1.454987e-01
    outer loop
      vertex   4.370132e-04 -5.000000e-02  8.386272e-04
      vertex   4.370132e-04  5.000000e-02  8.386272e-04
      vertex   4.753401e-04 -5.000000e-02  1.099242e-03
    endloop
  endfacet
  facet normal  9.767035e-01  0.000000e+00 -2.145932e-01
    outer loop
      vertex   4.370132e-04 -5.000000e-02  8.386272e-04
      vertex   3.789900e-04  5.000000e-02  5.745395e-04
      vertex   4.370132e-04  5.000000e-02  8.386272e-04
    endloop
  endfacet
  facet normal  9.767035e-01  0.000000e+00 -2.145932e-01
    outer loop
      vertex   3.789900e-04 -5.000000e-02  5.745395e-04
      vertex   3.789900e-04  5.000000e-02  5.745395e-04
      vertex   4.370132e-04 -5.000000e-02  8.386272e-04
    endloop
  endfacet
  facet normal  9.500194e-01  0.000000e+00 -3.121908e-01
    outer loop
      vertex   3.789900e-04 -5.000000e-02  5.745395e-04
      vertex   2.904378e-04  5.000000e-02  3.050687e-04
      vertex   3.789900e-04  5.000000e-02  5.745395e-04
    endloop
  endfacet
  facet normal  9.500194e-01  0.000000e+00 -3.121908e-01
    outer loop
      vertex   2.904378e-04 -5.000000e-02  3.050687e-04
      vertex   2.904378e-04  5.000000e-02  3.050687e-04
      vertex   3.789900e-04 -5.000000e-02  5.745395e-04
    endloop
  endfacet
  facet normal  8.891383e-01  0.000000e+00 -4.576385e-01
    outer loop
      vertex   2.185871e-04 -5.000000e-02  1.654711e-04
      vertex   2.904378e-04  5.000000e-02  3.050687e-04
      vertex   2.904378e-04 -5.000000e-02  3.050687e-04
    endloop
  endfacet
  facet normal  8.891383e-01  0.000000e+00 -4.576385e-01
    outer loop
      vertex   2.185871e-04 -5.000000e-02  1.654711e-04
      vertex   2.185871e-04  5.000000e-02  1.654711e-04
      vertex   2.904378e-04  5.000000e-02  3.050687e-04
    endloop
  endfacet
  facet normal  6.035676e-01  0.000000e+00 -7.973118e-01
    outer loop
      vertex   2.185871e-04 -5.000000e-02  1.654711e-04
      vertex   0.000000e+00  5.000000e-02 -6.123234e-18
      vertex   2.185871e-04  5.000000e-02  1.654711e-04
    endloop
  endfacet
  facet normal  6.035676e-01 -9.764254e-17 -7.973118e-01
    outer loop
      vertex   0.000000e+00 -5.000000e-02  6.123234e-18
      vertex   0.000000e+00  5.000000e-02 -6.123234e-18
      vertex   2.185871e-04 -5.000000e-02  1.654711e-04
    endloop
  endfacet
  facet normal -5.173931e-01 -1.047989e-16 -8.557478e-01
    outer loop
      vertex   0.000000e+00 -5.000000e-02  6.123234e-18
      vertex  -1.625335e-04  5.000000e-02  9.826928e-05
      vertex   0.000000e+00  5.000000e-02 -6.123234e-18
    endloop
  endfacet
  facet normal -5.173931e-01  0.000000e+00 -8.557478e-01
    outer loop
      vertex  -1.625335e-04 -5.000000e-02  9.826928e-05
      vertex  -1.625335e-04  5.000000e-02  9.826928e-05
      vertex   0.000000e+00 -5.000000e-02  6.123234e-18
    endloop
  endfacet
  facet normal -8.425716e-01  0.000000e+00 -5.385844e-01
    outer loop
      vertex  -1.625335e-04 -5.000000e-02  9.826928e-05
      vertex  -2.354496e-04  5.000000e-02  2.123405e-04
      vertex  -1.625335e-04  5.000000e-02  9.826928e-05
    endloop
  endfacet
  facet normal -8.425716e-01  0.000000e+00 -5.385844e-01
    outer loop
      vertex  -2.354496e-04 -5.000000e-02  2.123405e-04
      vertex  -2.354496e-04  5.000000e-02  2.123405e-04
      vertex  -1.625335e-04 -5.000000e-02  9.826928e-05
    endloop
  endfacet
  facet normal -9.259455e-01  0.000000e+00 -3.776571e-01
    outer loop
      vertex  -2.354496e-04 -5.000000e-02  2.123405e-04
      vertex  -3.320412e-04  5.000000e-02  4.491655e-04
      vertex  -2.354496e-04  5.000000e-02  2.123405e-04
    endloop
  endfacet
  facet normal -9.259455e-01  0.000000e+00 -3.776571e-01
    outer loop
      vertex  -3.320412e-04 -5.000000e-02  4.491655e-04
      vertex  -3.320412e-04  5.000000e-02  4.491655e-04
      vertex  -2.354496e-04 -5.000000e-02  2.123405e-04
    endloop
  endfacet
  facet normal -9.626417e-01  0.000000e+00 -2.707783e-01
    outer loop
      vertex  -3.320412e-04 -5.000000e-02  4.491655e-04
      vertex  -4.000734e-04  5.000000e-02  6.910262e-04
      vertex  -3.320412e-04  5.000000e-02  4.491655e-04
    endloop
  endfacet
  facet normal -9.626417e-01  0.000000e+00 -2.707783e-01
    outer loop
      vertex  -4.000734e-04 -5.000000e-02  6.910262e-04
      vertex  -4.000734e-04  5.000000e-02  6.910262e-04
      vertex  -3.320412e-04 -5.000000e-02  4.491655e-04
    endloop
  endfacet
  facet normal -9.753497e-01  0.000000e+00 -2.206649e-01
    outer loop
      vertex  -4.000734e-04 -5.000000e-02  6.910262e-04
      vertex  -4.553032e-04  5.000000e-02  9.351444e-04
      vertex  -4.000734e-04  5.000000e-02  6.910262e-04
    endloop
  endfacet
  facet normal -9.753497e-01  0.000000e+00 -2.206649e-01
    outer loop
      vertex  -4.553032e-04 -5.000000e-02  9.351444e-04
      vertex  -4.553032e-04  5.000000e-02  9.351444e-04
      vertex  -4.000734e-04 -5.000000e-02  6.910262e-04
    endloop
  endfacet
  facet normal -9.841053e-01  0.000000e+00 -1.775860e-01
    outer loop
      vertex  -5.440969e-04 -5.000000e-02  1.427201e-03
      vertex  -4.553032e-04  5.000000e-02  9.351444e-04
      vertex  -4.553032e-04 -5.000000e-02  9.351444e-04
    endloop
  endfacet
  facet normal -9.841053e-01  0.000000e+00 -1.775860e-01
    outer loop
      vertex  -5.440969e-04 -5.000000e-02  1.427201e-03
      vertex  -5.440969e-04  5.000000e-02  1.427201e-03
      vertex  -4.553032e-04  5.000000e-02  9.351444e-04
    endloop
  endfacet
  facet normal -9.892822e-01  0.000000e+00 -1.460163e-01
    outer loop
      vertex  -5.440969e-04 -5.000000e-02  1.427201e-03
      vertex  -6.171337e-04  5.000000e-02  1.922036e-03
      vertex  -5.440969e-04  5.000000e-02  1.427201e-03
    endloop
  endfacet
  facet normal -9.892822e-01  0.000000e+00 -1.460163e-01
    outer loop
      vertex  -6.171337e-04 -5.000000e-02  1.922036e-03
      vertex  -6.171337e-04  5.000000e-02  1.922036e-03
      vertex  -5.440969e-04 -5.000000e-02  1.427201e-03
    endloop
  endfacet
  facet normal -9.920007e-01  0.000000e+00 -1.262320e-01
    outer loop
      vertex  -6.803224e-04 -5.000000e-02  2.418607e-03
      vertex  -6.171337e-04  5.000000e-02  1.922036e-03
      vertex  -6.171337e-04 -5.000000e-02  1.922036e-03
    endloop
  endfacet
  facet normal -9.920007e-01  0.000000e+00 -1.262320e-01
    outer loop
      vertex  -6.803224e-04 -5.000000e-02  2.418607e-03
      vertex  -6.803224e-04  5.000000e-02  2.418607e-03
      vertex  -6.171337e-04  5.000000e-02  1.922036e-03
    endloop
  endfacet
  facet normal -9.920008e-01  0.000000e+00 -1.262321e-01
    outer loop
      vertex  -7.435111e-04 -5.000000e-02  2.915179e-03
      vertex  -6.803224e-04  5.000000e-02  2.418607e-03
      vertex  -6.803224e-04 -5.000000e-02  2.418607e-03
    endloop
  endfacet
  facet normal -9.920008e-01  0.000000e+00 -1.262321e-01
    outer loop
      vertex  -7.435111e-04 -5.000000e-02  2.915179e-03
      vertex  -7.435111e-04  5.000000e-02  2.915179e-03
      vertex  -6.803224e-04  5.000000e-02  2.418607e-03
    endloop
  endfacet
  facet normal -9.917469e-01  0.000000e+00 -1.282115e-01
    outer loop
      vertex  -7.435111e-04 -5.000000e-02  2.915179e-03
      vertex  -8.718581e-04  5.000000e-02  3.907974e-03
      vertex  -7.435111e-04  5.000000e-02  2.915179e-03
    endloop
  endfacet
  facet normal -9.917469e-01  0.000000e+00 -1.282115e-01
    outer loop
      vertex  -8.718581e-04 -5.000000e-02  3.907974e-03
      vertex  -8.718581e-04  5.000000e-02  3.907974e-03
      vertex  -7.435111e-04 -5.000000e-02  2.915179e-03
    endloop
  endfacet
  facet normal -9.909613e-01  0.000000e+00 -1.341486e-01
    outer loop
      vertex  -1.006114e-03 -5.000000e-02  4.899728e-03
      vertex  -8.718581e-04  5.000000e-02  3.907974e-03
      vertex  -8.718581e-04 -5.000000e-02  3.907974e-03
    endloop
  endfacet
  facet normal -9.909613e-01  0.000000e+00 -1.341486e-01
    outer loop
      vertex  -1.006114e-03 -5.000000e-02  4.899728e-03
      vertex  -1.006114e-03  5.000000e-02  4.899728e-03
      vertex  -8.718581e-04  5.000000e-02  3.907974e-03
    endloop
  endfacet
  facet normal -9.909613e-01  0.000000e+00 -1.341486e-01
    outer loop
      vertex  -1.140370e-03 -5.000000e-02  5.891482e-03
      vertex  -1.006114e-03  5.000000e-02  4.899728e-03
      vertex  -1.006114e-03 -5.000000e-02  4.899728e-03
    endloop
  endfacet
  facet normal -9.909613e-01  0.000000e+00 -1.341486e-01
    outer loop
      vertex  -1.140370e-03 -5.000000e-02  5.891482e-03
      vertex  -1.140370e-03  5.000000e-02  5.891482e-03
      vertex  -1.006114e-03  5.000000e-02  4.899728e-03
    endloop
  endfacet
  facet normal -9.902791e-01  0.000000e+00 -1.390948e-01
    outer loop
      vertex  -1.140370e-03 -5.000000e-02  5.891482e-03
      vertex  -1.279550e-03  5.000000e-02  6.882367e-03
      vertex  -1.140370e-03  5.000000e-02  5.891482e-03
    endloop
  endfacet
  facet normal -9.902791e-01  0.000000e+00 -1.390948e-01
    outer loop
      vertex  -1.279550e-03 -5.000000e-02  6.882367e-03
      vertex  -1.279550e-03  5.000000e-02  6.882367e-03
      vertex  -1.140370e-03 -5.000000e-02  5.891482e-03
    endloop
  endfacet
  facet normal -9.889883e-01  0.000000e+00 -1.479932e-01
    outer loop
      vertex  -1.279550e-03 -5.000000e-02  6.882367e-03
      vertex  -1.427593e-03  5.000000e-02  7.871689e-03
      vertex  -1.279550e-03  5.000000e-02  6.882367e-03
    endloop
  endfacet
  facet normal -9.889883e-01  0.000000e+00 -1.479932e-01
    outer loop
      vertex  -1.427593e-03 -5.000000e-02  7.871689e-03
      vertex  -1.427593e-03  5.000000e-02  7.871689e-03
      vertex  -1.279550e-03 -5.000000e-02  6.882367e-03
    endloop
  endfacet
  facet normal -9.876171e-01  0.000000e+00 -1.568838e-01
    outer loop
      vertex  -1.427593e-03 -5.000000e-02  7.871689e-03
      vertex  -1.584499e-03  5.000000e-02  8.859449e-03
      vertex  -1.427593e-03  5.000000e-02  7.871689e-03
    endloop
  endfacet
  facet normal -9.876171e-01  0.000000e+00 -1.568838e-01
    outer loop
      vertex  -1.584499e-03 -5.000000e-02  8.859449e-03
      vertex  -1.584499e-03  5.000000e-02  8.859449e-03
      vertex  -1.427593e-03 -5.000000e-02  7.871689e-03
    endloop
  endfacet
  facet normal -9.868205e-01  0.000000e+00 -1.618188e-01
    outer loop
      vertex  -1.584499e-03 -5.000000e-02  8.859449e-03
      vertex  -1.665415e-03  5.000000e-02  9.352894e-03
      vertex  -1.584499e-03  5.000000e-02  8.859449e-03
    endloop
  endfacet
  facet normal -9.868205e-01  0.000000e+00 -1.618188e-01
    outer loop
      vertex  -1.665415e-03 -5.000000e-02  9.352894e-03
      vertex  -1.665415e-03  5.000000e-02  9.352894e-03
      vertex  -1.584499e-03 -5.000000e-02  8.859449e-03
    endloop
  endfacet
  facet normal -9.858320e-01  0.000000e+00 -1.677360e-01
    outer loop
      vertex  -1.665415e-03 -5.000000e-02  9.352894e-03
      vertex  -1.749284e-03  5.000000e-02  9.845820e-03
      vertex  -1.665415e-03  5.000000e-02  9.352894e-03
    endloop
  endfacet
  facet normal -9.858320e-01  0.000000e+00 -1.677360e-01
    outer loop
      vertex  -1.749284e-03 -5.000000e-02  9.845820e-03
      vertex  -1.749284e-03  5.000000e-02  9.845820e-03
      vertex  -1.665415e-03 -5.000000e-02  9.352894e-03
    endloop
  endfacet
  facet normal  8.850308e-01 -0.000000e+00  4.655323e-01
    outer loop
      vertex  -1.749284e-03 -5.000000e-02  9.845820e-03
      vertex  -1.504891e-03  5.000000e-02  9.381200e-03
      vertex  -1.749284e-03  5.000000e-02  9.845820e-03
    endloop
  endfacet
  facet normal  8.850308e-01 -0.000000e+00  4.655323e-01
    outer loop
      vertex  -1.504891e-03 -5.000000e-02  9.381200e-03
      vertex  -1.504891e-03  5.000000e-02  9.381200e-03
      vertex  -1.749284e-03 -5.000000e-02  9.845820e-03
    endloop
  endfacet
  facet normal  0.000000e+00  1.000000e+00 -0.000000e+00
    outer loop
      vertex  -1.665415e-03  5.000000e-02  9.352894e-03
      vertex  -1.749284e-03  5.000000e-02  9.845820e-03
      vertex  -1.504891e-03  5.000000e-02  9.381200e-03
    endloop
  endfacet
  facet normal -0.000000e+00  1.000000e+00  0.000000e+00
    outer loop
      vertex  -1.665415e-03  5.000000e-02  9.352894e-03
      vertex  -1.504891e-03  5.000000e-02  9.381200e-03
      vertex  -1.584499e-03  5.000000e-02  8.859449e-03
    endloop
  endfacet
  facet normal  0.000000e+00  1.000000e+00  0.000000e+00
    outer loop
      vertex  -1.584499e-03  5.000000e-02  8.859449e-03
      vertex  -1.504891e-03  5.000000e-02  9.381200e-03
      vertex  -1.295951e-03  5.000000e-02  8.910328e-03
    endloop
  endfacet
  facet normal -0.000000e+00  1.000000e+00  0.000000e+00
    outer loop
      vertex  -1.584499e-03  5.000000e-02  8.859449e-03
      vertex  -1.295951e-03  5.000000e-02  8.910328e-03
      vertex  -1.427593e-03  5.000000e-02  7.871689e-03
    endloop
  endfacet
  facet normal  0.000000e+00  1.000000e+00  0.000000e+00
    outer loop
      vertex  -1.427593e-03  5.000000e-02  7.871689e-03
      vertex  -1.295951e-03  5.000000e-02  8.910328e-03
      vertex  -9.076145e-04  5.000000e-02  7.963376e-03
    endloop
  endfacet
  facet normal -0.000000e+00  1.000000e+00  0.000000e+00
    outer loop
      vertex  -1.427593e-03  5.000000e-02  7.871689e-03
      vertex  -9.076145e-04  5.000000e-02  7.963376e-03
      vertex  -1.279550e-03  5.000000e-02  6.882367e-03
    endloop
  endfacet
  facet normal  0.000000e+00  1.000000e+00  0.000000e+00
    outer loop
      vertex  -1.279550e-03  5.000000e-02  6.882367e-03
      vertex  -9.076145e-04  5.000000e-02  7.963376e-03
      vertex  -5.567008e-04  5.000000e-02  7.009824e-03
    endloop
  endfacet
  facet normal -0.000000e+00  1.000000e+00  0.000000e+00
    outer loop
      vertex  -1.279550e-03  5.000000e-02  6.882367e-03
      vertex  -5.567008e-04  5.000000e-02  7.009824e-03
      vertex  -1.140370e-03  5.000000e-02  5.891482e-03
    endloop
  endfacet
  facet normal  0.000000e+00  1.000000e+00  0.000000e+00
    outer loop
      vertex  -1.140370e-03  5.000000e-02  5.891482e-03
      vertex  -5.567008e-04  5.000000e-02  7.009824e-03
      vertex  -2.402556e-04  5.000000e-02  6.050196e-03
    endloop
  endfacet
  facet normal -0.000000e+00  1.000000e+00  0.000000e+00
    outer loop
      vertex  -1.140370e-03  5.000000e-02  5.891482e-03
      vertex  -2.402556e-04  5.000000e-02  6.050196e-03
      vertex  -1.006114e-03  5.000000e-02  4.899728e-03
    endloop
  endfacet
  facet normal  0.000000e+00  1.000000e+00 -0.000000e+00
    outer loop
      vertex  -8.718581e-04  5.000000e-02  3.907974e-03
      vertex  -1.006114e-03  5.000000e-02  4.899728e-03
      vertex   3.679742e-05  5.000000e-02  5.083621e-03
    endloop
  endfacet
  facet normal  0.000000e+00  1.000000e+00  0.000000e+00
    outer loop
      vertex  -1.006114e-03  5.000000e-02  4.899728e-03
      vertex  -2.402556e-04  5.000000e-02  6.050196e-03
      vertex   3.679742e-05  5.000000e-02  5.083621e-03
    endloop
  endfacet
  facet normal  0.000000e+00  1.000000e+00  0.000000e+00
    outer loop
      vertex  -8.718581e-04  5.000000e-02  3.907974e-03
      vertex   3.679742e-05  5.000000e-02  5.083621e-03
      vertex   2.705189e-04  5.000000e-02  4.109406e-03
    endloop
  endfacet
  facet normal  0.000000e+00  1.000000e+00 -0.000000e+00
    outer loop
      vertex  -7.435111e-04  5.000000e-02  2.915179e-03
      vertex  -8.718581e-04  5.000000e-02  3.907974e-03
      vertex   4.402278e-04  5.000000e-02  3.123904e-03
    endloop
  endfacet
  facet normal -0.000000e+00  1.000000e+00  0.000000e+00
    outer loop
      vertex  -8.718581e-04  5.000000e-02  3.907974e-03
      vertex   2.705189e-04  5.000000e-02  4.109406e-03
      vertex   4.402278e-04  5.000000e-02  3.123904e-03
    endloop
  endfacet
  facet normal  0.000000e+00  1.000000e+00 -0.000000e+00
    outer loop
      vertex  -6.803224e-04  5.000000e-02  2.418607e-03
      vertex  -7.435111e-04  5.000000e-02  2.915179e-03
      vertex   4.925836e-04  5.000000e-02  2.625422e-03
    endloop
  endfacet
  facet normal -0.000000e+00  1.000000e+00  0.000000e+00
    outer loop
      vertex  -7.435111e-04  5.000000e-02  2.915179e-03
      vertex   4.402278e-04  5.000000e-02  3.123904e-03
      vertex   4.925836e-04  5.000000e-02  2.625422e-03
    endloop
  endfacet
  facet normal  0.000000e+00  1.000000e+00 -0.000000e+00
    outer loop
      vertex  -6.171337e-04  5.000000e-02  1.922036e-03
      vertex  -6.803224e-04  5.000000e-02  2.418607e-03
      vertex   5.193345e-04  5.000000e-02  2.122426e-03
    endloop
  endfacet
  facet normal -0.000000e+00  1.000000e+00  0.000000e+00
    outer loop
      vertex  -6.803224e-04  5.000000e-02  2.418607e-03
      vertex   4.925836e-04  5.000000e-02  2.625422e-03
      vertex   5.193345e-04  5.000000e-02  2.122426e-03
    endloop
  endfacet
  facet normal  0.000000e+00  1.000000e+00 -0.000000e+00
    outer loop
      vertex  -5.440969e-04  5.000000e-02  1.427201e-03
      vertex  -6.171337e-04  5.000000e-02  1.922036e-03
      vertex   5.165410e-04  5.000000e-02  1.614220e-03
    endloop
  endfacet
  facet normal -0.000000e+00  1.000000e+00  0.000000e+00
    outer loop
      vertex  -6.171337e-04  5.000000e-02  1.922036e-03
      vertex   5.193345e-04  5.000000e-02  2.122426e-03
      vertex   5.165410e-04  5.000000e-02  1.614220e-03
    endloop
  endfacet
  facet normal  0.000000e+00  1.000000e+00 -0.000000e+00
    outer loop
      vertex  -4.553032e-04  5.000000e-02  9.351444e-04
      vertex  -5.440969e-04  5.000000e-02  1.427201e-03
      vertex   4.753401e-04  5.000000e-02  1.099242e-03
    endloop
  endfacet
  facet normal -0.000000e+00  1.000000e+00  0.000000e+00
    outer loop
      vertex  -5.440969e-04  5.000000e-02  1.427201e-03
      vertex   5.165410e-04  5.000000e-02  1.614220e-03
      vertex   4.753401e-04  5.000000e-02  1.099242e-03
    endloop
  endfacet
  facet normal  0.000000e+00  1.000000e+00 -0.000000e+00
    outer loop
      vertex  -4.000734e-04  5.000000e-02  6.910262e-04
      vertex  -4.553032e-04  5.000000e-02  9.351444e-04
      vertex   4.370132e-04  5.000000e-02  8.386272e-04
    endloop
  endfacet
  facet normal -0.000000e+00  1.000000e+00  0.000000e+00
    outer loop
      vertex  -4.553032e-04  5.000000e-02  9.351444e-04
      vertex   4.753401e-04  5.000000e-02  1.099242e-03
      vertex   4.370132e-04  5.000000e-02  8.386272e-04
    endloop
  endfacet
  facet normal  0.000000e+00  1.000000e+00 -0.000000e+00
    outer loop
      vertex  -3.320412e-04  5.000000e-02  4.491655e-04
      vertex  -4.000734e-04  5.000000e-02  6.910262e-04
      vertex   3.789900e-04  5.000000e-02  5.745395e-04
    endloop
  endfacet
  facet normal -0.000000e+00  1.000000e+00  0.000000e+00
    outer loop
      vertex  -4.000734e-04  5.000000e-02  6.910262e-04
      vertex   4.370132e-04  5.000000e-02  8.386272e-04
      vertex   3.789900e-04  5.000000e-02  5.745395e-04
    endloop
  endfacet
  facet normal  0.000000e+00  1.000000e+00 -0.000000e+00
    outer loop
      vertex  -2.354496e-04  5.000000e-02  2.123405e-04
      vertex  -3.320412e-04  5.000000e-02  4.491655e-04
      vertex   2.904378e-04  5.000000e-02  3.050687e-04
    endloop
  endfacet
  facet normal -0.000000e+00  1.000000e+00  0.000000e+00
    outer loop
      vertex  -3.320412e-04  5.000000e-02  4.491655e-04
      vertex   3.789900e-04  5.000000e-02  5.745395e-04
      vertex   2.904378e-04  5.000000e-02  3.050687e-04
    endloop
  endfacet
  facet normal  0.000000e+00  1.000000e+00 -0.000000e+00
    outer loop
      vertex  -1.625335e-04  5.000000e-02  9.826928e-05
      vertex  -2.354496e-04  5.000000e-02  2.123405e-04
      vertex   2.185871e-04  5.000000e-02  1.654711e-04
    endloop
  endfacet
  facet normal  0.000000e+00  1.000000e+00 -0.000000e+00
    outer loop
      vertex   0.000000e+00  5.000000e-02 -6.123234e-18
      vertex  -1.625335e-04  5.000000e-02  9.826928e-05
      vertex   2.185871e-04  5.000000e-02  1.654711e-04
    endloop
  endfacet
  facet normal -0.000000e+00  1.000000e+00  0.000000e+00
    outer loop
      vertex  -2.354496e-04  5.000000e-02  2.123405e-04
      vertex   2.904378e-04  5.000000e-02  3.050687e-04
      vertex   2.185871e-04  5.000000e-02  1.654711e-04
    endloop
  endfacet
  facet normal  0.000000e+00 -1.000000e+00  0.000000e+00
    outer loop
      vertex  -1.665415e-03 -5.000000e-02  9.352894e-03
      vertex  -1.504891e-03 -5.000000e-02  9.381200e-03
      vertex  -1.749284e-03 -5.000000e-02  9.845820e-03
    endloop
  endfacet
  facet normal  0.000000e+00 -1.000000e+00  0.000000e+00
    outer loop
      vertex  -1.665415e-03 -5.000000e-02  9.352894e-03
      vertex  -1.584499e-03 -5.000000e-02  8.859449e-03
      vertex  -1.504891e-03 -5.000000e-02  9.381200e-03
    endloop
  endfacet
  facet normal  0.000000e+00 -1.000000e+00  0.000000e+00
    outer loop
      vertex  -1.584499e-03 -5.000000e-02  8.859449e-03
      vertex  -1.295951e-03 -5.000000e-02  8.910328e-03
      vertex  -1.504891e-03 -5.000000e-02  9.381200e-03
    endloop
  endfacet
  facet normal  0.000000e+00 -1.000000e+00  0.000000e+00
    outer loop
      vertex  -1.584499e-03 -5.000000e-02  8.859449e-03
      vertex  -1.427593e-03 -5.000000e-02  7.871689e-03
      vertex  -1.295951e-03 -5.000000e-02  8.910328e-03
    endloop
  endfacet
  facet normal  0.000000e+00 -1.000000e+00  0.000000e+00
    outer loop
      vertex  -1.427593e-03 -5.000000e-02  7.871689e-03
      vertex  -9.076145e-04 -5.000000e-02  7.963376e-03
      vertex  -1.295951e-03 -5.000000e-02  8.910328e-03
    endloop
  endfacet
  facet normal  0.000000e+00 -1.000000e+00  0.000000e+00
    outer loop
      vertex  -1.427593e-03 -5.000000e-02  7.871689e-03
      vertex  -1.279550e-03 -5.000000e-02  6.882367e-03
      vertex  -9.076145e-04 -5.000000e-02  7.963376e-03
    endloop
  endfacet
  facet normal  0.000000e+00 -1.000000e+00  0.000000e+00
    outer loop
      vertex  -1.279550e-03 -5.000000e-02  6.882367e-03
      vertex  -5.567008e-04 -5.000000e-02  7.009824e-03
      vertex  -9.076145e-04 -5.000000e-02  7.963376e-03
    endloop
  endfacet
  facet normal  0.000000e+00 -1.000000e+00  0.000000e+00
    outer loop
      vertex  -1.279550e-03 -5.000000e-02  6.882367e-03
      vertex  -1.140370e-03 -5.000000e-02  5.891482e-03
      vertex  -5.567008e-04 -5.000000e-02  7.009824e-03
    endloop
  endfacet
  facet normal  0.000000e+00 -1.000000e+00  0.000000e+00
    outer loop
      vertex  -1.140370e-03 -5.000000e-02  5.891482e-03
      vertex  -2.402556e-04 -5.000000e-02  6.050196e-03
      vertex  -5.567008e-04 -5.000000e-02  7.009824e-03
    endloop
  endfacet
  facet normal  0.000000e+00 -1.000000e+00  0.000000e+00
    outer loop
      vertex  -1.140370e-03 -5.000000e-02  5.891482e-03
      vertex  -1.006114e-03 -5.000000e-02  4.899728e-03
      vertex  -2.402556e-04 -5.000000e-02  6.050196e-03
    endloop
  endfacet
  facet normal  0.000000e+00 -1.000000e+00  0.000000e+00
    outer loop
      vertex  -8.718581e-04 -5.000000e-02  3.907974e-03
      vertex   3.679742e-05 -5.000000e-02  5.083621e-03
      vertex  -1.006114e-03 -5.000000e-02  4.899728e-03
    endloop
  endfacet
  facet normal  0.000000e+00 -1.000000e+00  0.000000e+00
    outer loop
      vertex  -1.006114e-03 -5.000000e-02  4.899728e-03
      vertex   3.679742e-05 -5.000000e-02  5.083621e-03
      vertex  -2.402556e-04 -5.000000e-02  6.050196e-03
    endloop
  endfacet
  facet normal  0.000000e+00 -1.000000e+00  0.000000e+00
    outer loop
      vertex  -8.718581e-04 -5.000000e-02  3.907974e-03
      vertex   2.705189e-04 -5.000000e-02  4.109406e-03
      vertex   3.679742e-05 -5.000000e-02  5.083621e-03
    endloop
  endfacet
  facet normal  0.000000e+00 -1.000000e+00  0.000000e+00
    outer loop
      vertex  -7.435111e-04 -5.000000e-02  2.915179e-03
      vertex   4.402278e-04 -5.000000e-02  3.123904e-03
      vertex  -8.718581e-04 -5.000000e-02  3.907974e-03
    endloop
  endfacet
  facet normal  0.000000e+00 -1.000000e+00  0.000000e+00
    outer loop
      vertex  -8.718581e-04 -5.000000e-02  3.907974e-03
      vertex   4.402278e-04 -5.000000e-02  3.123904e-03
      vertex   2.705189e-04 -5.000000e-02  4.109406e-03
    endloop
  endfacet
  facet normal  0.000000e+00 -1.000000e+00  0.000000e+00
    outer loop
      vertex  -6.803224e-04 -5.000000e-02  2.418607e-03
      vertex   4.925836e-04 -5.000000e-02  2.625422e-03
      vertex  -7.435111e-04 -5.000000e-02  2.915179e-03
    endloop
  endfacet
  facet normal  0.000000e+00 -1.000000e+00  0.000000e+00
    outer loop
      vertex  -7.435111e-04 -5.000000e-02  2.915179e-03
      vertex   4.925836e-04 -5.000000e-02  2.625422e-03
      vertex   4.402278e-04 -5.000000e-02  3.123904e-03
    endloop
  endfacet
  facet normal  0.000000e+00 -1.000000e+00  0.000000e+00
    outer loop
      vertex  -6.171337e-04 -5.000000e-02  1.922036e-03
      vertex   5.193345e-04 -5.000000e-02  2.122426e-03
      vertex  -6.803224e-04 -5.000000e-02  2.418607e-03
    endloop
  endfacet
  facet normal  0.000000e+00 -1.000000e+00  0.000000e+00
    outer loop
      vertex  -6.803224e-04 -5.000000e-02  2.418607e-03
      vertex   5.193345e-04 -5.000000e-02  2.122426e-03
      vertex   4.925836e-04 -5.000000e-02  2.625422e-03
    endloop
  endfacet
  facet normal  0.000000e+00 -1.000000e+00  0.000000e+00
    outer loop
      vertex  -5.440969e-04 -5.000000e-02  1.427201e-03
      vertex   5.165410e-04 -5.000000e-02  1.614220e-03
      vertex  -6.171337e-04 -5.000000e-02  1.922036e-03
    endloop
  endfacet
  facet normal  0.000000e+00 -1.000000e+00  0.000000e+00
    outer loop
      vertex  -6.171337e-04 -5.000000e-02  1.922036e-03
      vertex   5.165410e-04 -5.000000e-02  1.614220e-03
      vertex   5.193345e-04 -5.000000e-02  2.122426e-03
    endloop
  endfacet
  facet normal  0.000000e+00 -1.000000e+00  0.000000e+00
    outer loop
      vertex  -4.553032e-04 -5.000000e-02  9.351444e-04
      vertex   4.753401e-04 -5.000000e-02  1.099242e-03
      vertex  -5.440969e-04 -5.000000e-02  1.427201e-03
    endloop
  endfacet
  facet normal  0.000000e+00 -1.000000e+00  0.000000e+00
    outer loop
      vertex  -5.440969e-04 -5.000000e-02  1.427201e-03
      vertex   4.753401e-04 -5.000000e-02  1.099242e-03
      vertex   5.165410e-04 -5.000000e-02  1.614220e-03
    endloop
  endfacet
  facet normal  0.000000e+00 -1.000000e+00  0.000000e+00
    outer loop
      vertex  -4.000734e-04 -5.000000e-02  6.910262e-04
      vertex   4.370132e-04 -5.000000e-02  8.386272e-04
      vertex  -4.553032e-04 -5.000000e-02  9.351444e-04
    endloop
  endfacet
  facet normal  0.000000e+00 -1.000000e+00  0.000000e+00
    outer loop
      vertex  -4.553032e-04 -5.000000e-02  9.351444e-04
      vertex   4.370132e-04 -5.000000e-02  8.386272e-04
      vertex   4.753401e-04 -5.000000e-02  1.099242e-03
    endloop
  endfacet
  facet normal  0.000000e+00 -1.000000e+00  0.000000e+00
    outer loop
      vertex  -3.320412e-04 -5.000000e-02  4.491655e-04
      vertex   3.789900e-04 -5.000000e-02  5.745395e-04
      vertex  -4.000734e-04 -5.000000e-02  6.910262e-04
    endloop
  endfacet
  facet normal  0.000000e+00 -1.000000e+00  0.000000e+00
    outer loop
      vertex  -4.000734e-04 -5.000000e-02  6.910262e-04
      vertex   3.789900e-04 -5.000000e-02  5.745395e-04
      vertex   4.370132e-04 -5.000000e-02  8.386272e-04
    endloop
  endfacet
  facet normal  0.000000e+00 -1.000000e+00  0.000000e+00
    outer loop
      vertex  -2.354496e-04 -5.000000e-02  2.123405e-04
      vertex   2.904378e-04 -5.000000e-02  3.050687e-04
      vertex  -3.320412e-04 -5.000000e-02  4.491655e-04
    endloop
  endfacet
  facet normal  0.000000e+00 -1.000000e+00  0.000000e+00
    outer loop
      vertex  -3.320412e-04 -5.000000e-02  4.491655e-04
      vertex   2.904378e-04 -5.000000e-02  3.050687e-04
      vertex   3.789900e-04 -5.000000e-02  5.745395e-04
    endloop
  endfacet
  facet normal  0.000000e+00 -1.000000e+00  0.000000e+00
    outer loop
      vertex  -1.625335e-04 -5.000000e-02  9.826928e-05
      vertex   2.185871e-04 -5.000000e-02  1.654711e-04
      vertex  -2.354496e-04 -5.000000e-02  2.123405e-04
    endloop
  endfacet
  facet normal  0.000000e+00 -1.000000e+00  0.000000e+00
    outer loop
      vertex   0.000000e+00 -5.000000e-02  6.123234e-18
      vertex   2.185871e-04 -5.000000e-02  1.654711e-04
      vertex  -1.625335e-04 -5.000000e-02  9.826928e-05
    endloop
  endfacet
  facet normal  0.000000e+00 -1.000000e+00  0.000000e+00
    outer loop
      vertex  -2.354496e-04 -5.000000e-02  2.123405e-04
      vertex   2.185871e-04 -5.000000e-02  1.654711e-04
      vertex   2.904378e-04 -5.000000e-02  3.050687e-04
    endloop
  endfacet
endsolid cavitating_hydrofoil_10aoa
